{
  "accessors": [
    {
      "bufferView": 0,
      "componentType": 5126,
      "count": 5701,
      "type": "VEC3",
      "max": [
        0.65057051181793213,
        1.7995455265045166,
        0.15979510545730591
      ],
      "min": [
        -0.65057051181793213,
        -0.00030518363928422332,
        -0.17598716914653778
      ]
    },
    {
      "bufferView": 1,
      "componentType": 5126,
      "count": 5701,
      "type": "VEC3",
      "max": [
        1.0,
        1.0,
        1.0
      ],
      "min": [
        -1.0,
        -1.0,
        -1.0
      ]
    },
    {
      "bufferView": 2,
      "componentType": 5126,
      "count": 5701,
      "type": "VEC4",
      "max": [
        1.0,
        0.99990415573120117,
        1.0,
        1.0
      ],
      "min": [
        -1.0,
        -1.0,
        -1.0,
        -1.0
      ]
    },
    {
      "bufferView": 3,
      "componentType": 5126,
      "count": 5701,
      "type": "VEC2",
      "max": [
        0.99601328372955322,
        0.99402815103530884
      ],
      "min": [
        0.0046229362487792969,
        0.0065795509144663811
      ]
    },
    {
      "bufferView": 4,
      "componentType": 5125,
      "count": 18396,
      "type": "SCALAR",
      "max": [
        5700.0
      ],
      "min": [
        0.0
      ]
    },
    {
      "bufferView": 5,
      "componentType": 5126,
      "count": 48,
      "type": "MAT4"
    },
    {
      "bufferView": 6,
      "componentType": 5123,
      "count": 5701,
      "type": "VEC4",
      "max": [
        47.0,
        46.0,
        0.0,
        0.0
      ],
      "min": [
        0.0,
        0.0,
        0.0,
        0.0
      ]
    },
    {
      "bufferView": 7,
      "componentType": 5126,
      "count": 5701,
      "type": "VEC4",
      "max": [
        1.0,
        0.5,
        0.17028428614139557,
        0.0
      ],
      "min": [
        0.44999998807907104,
        0.0,
        0.0,
        0.0
      ]
    }
  ],
  "asset": {
    "generator": "Plattar UnityGLTF (2021.3.24f1)",
    "version": "2.0"
  },
  "buffers": [
    {
      "uri": "Robot Kyle.bin",
      "byteLength": 487128
    }
  ],
  "bufferViews": [
    {
      "buffer": 0,
      "byteLength": 68412
    },
    {
      "buffer": 0,
      "byteOffset": 68412,
      "byteLength": 68412
    },
    {
      "buffer": 0,
      "byteOffset": 136824,
      "byteLength": 91216
    },
    {
      "buffer": 0,
      "byteOffset": 228040,
      "byteLength": 45608
    },
    {
      "buffer": 0,
      "byteOffset": 273648,
      "byteLength": 73584
    },
    {
      "buffer": 0,
      "byteOffset": 347232,
      "byteLength": 3072
    },
    {
      "buffer": 0,
      "byteOffset": 350304,
      "byteLength": 45608
    },
    {
      "buffer": 0,
      "byteOffset": 395912,
      "byteLength": 91216
    }
  ],
  "images": [
    {
      "uri": "Robot_Color.jpg",
      "name": "Robot_Color"
    }
  ],
  "materials": [
    {
      "pbrMetallicRoughness": {
        "baseColorTexture": {
          "index": 0
        },
        "metallicFactor": 0.0,
        "roughnessFactor": 0.5
      },
      "name": "Robot_Color 1"
    }
  ],
  "meshes": [
    {
      "primitives": [
        {
          "attributes": {
            "POSITION": 0,
            "NORMAL": 1,
            "TANGENT": 2,
            "TEXCOORD_0": 3,
            "JOINTS_0": 6,
            "WEIGHTS_0": 7
          },
          "indices": 4,
          "material": 0
        }
      ],
      "name": "Robot"
    }
  ],
  "nodes": [
    {
      "children": [
        1,
        2
      ],
      "rotation": [
        0.0,
        0.528388858,
        0.0,
        -0.84900254
      ],
      "scale": [
        1.00000012,
        1.0,
        1.00000012
      ],
      "translation": [
        -0.008045812,
        0.0,
        -0.00500749238
      ],
      "name": "Robot Kyle"
    },
    {
      "skin": 0,
      "mesh": 0,
      "rotation": [
        0.0,
        0.0,
        0.0,
        -1.0
      ],
      "name": "Robot"
    },
    {
      "children": [
        3,
        12
      ],
      "rotation": [
        0.472944558,
        -0.525664747,
        0.472944558,
        -0.525664747
      ],
      "translation": [
        -2.18785635E-33,
        1.06283081,
        -0.0351298526
      ],
      "name": "Root"
    },
    {
      "children": [
        4,
        8
      ],
      "rotation": [
        0.0377401859,
        0.9992876,
        -5.51196334E-17,
        -1.63008619E-16
      ],
      "translation": [
        0.028992068,
        -0.00259387214,
        -1.22991095E-17
      ],
      "name": "Hip"
    },
    {
      "children": [
        5
      ],
      "rotation": [
        0.9957005,
        0.09263137,
        -6.73769248E-17,
        -7.24238846E-16
      ],
      "translation": [
        -0.122133613,
        0.0113319969,
        0.0689055547
      ],
      "name": "Left_Thigh_Joint_01"
    },
    {
      "children": [
        6
      ],
      "rotation": [
        4.44010621E-16,
        8.354493E-18,
        -0.0188126452,
        -0.999823034
      ],
      "translation": [
        -0.3717338,
        -0.00199661148,
        -0.07303617
      ],
      "name": "Left_Knee_Joint_01"
    },
    {
      "children": [
        7
      ],
      "rotation": [
        0.86925447,
        0.494364947,
        -3.027112E-17,
        -5.3226485E-17
      ],
      "translation": [
        -0.434050143,
        -8.42735248E-18,
        8.746468E-18
      ],
      "name": "Left_Ankle_Joint_01"
    },
    {
      "rotation": [
        -0.227291971,
        -0.669580758,
        0.227291971,
        -0.669580758
      ],
      "translation": [
        -0.137871921,
        -2.6645352E-17,
        -3.5527136E-17
      ],
      "name": "Left_Toe_Joint_01"
    },
    {
      "children": [
        9
      ],
      "rotation": [
        0.0,
        0.0,
        -0.9957005,
        0.09263137
      ],
      "translation": [
        -0.1221335,
        0.011331954,
        -0.0689056
      ],
      "name": "Right_Thigh_Joint_01"
    },
    {
      "children": [
        10
      ],
      "rotation": [
        0.0,
        0.0,
        0.0188126452,
        -0.999823034
      ],
      "translation": [
        0.3717341,
        -0.001996706,
        -0.073036395
      ],
      "name": "Right_Knee_Joint_01"
    },
    {
      "children": [
        11
      ],
      "rotation": [
        0.0,
        0.0,
        0.494364947,
        -0.86925447
      ],
      "translation": [
        0.434049755,
        7.899868E-08,
        1.7763568E-17
      ],
      "name": "Right_Ankle_Joint_01"
    },
    {
      "rotation": [
        1.22199291E-08,
        -4.148106E-09,
        0.3214394,
        -0.94693017
      ],
      "translation": [
        0.13787201,
        6.441087E-08,
        3.5527136E-17
      ],
      "name": "Right_Toe_Joint_01"
    },
    {
      "children": [
        13,
        31,
        33
      ],
      "rotation": [
        0.0,
        0.0,
        0.009375348,
        -0.9999561
      ],
      "translation": [
        -0.08024527,
        0.000621672545,
        9.82317E-18
      ],
      "name": "Ribs"
    },
    {
      "children": [
        14
      ],
      "rotation": [
        -0.410582274,
        0.447834462,
        -0.536756337,
        -0.5854563
      ],
      "translation": [
        -0.24796544,
        -0.0189683326,
        -0.131307259
      ],
      "name": "Left_Shoulder_Joint_01"
    },
    {
      "children": [
        15
      ],
      "rotation": [
        0.114033155,
        0.00978106,
        -0.4396459,
        -0.890849233
      ],
      "translation": [
        -0.06358527,
        0.0,
        3.10862448E-17
      ],
      "name": "Left_Upper_Arm_Joint_01"
    },
    {
      "children": [
        16
      ],
      "rotation": [
        -0.05499202,
        0.10791634,
        0.450852454,
        -0.88434273
      ],
      "translation": [
        -0.2383711,
        0.03532467,
        0.00126056455
      ],
      "name": "Left_Forearm_Joint_01"
    },
    {
      "children": [
        17,
        20,
        23,
        26,
        29
      ],
      "rotation": [
        -0.00341344066,
        0.00664581871,
        -0.454181045,
        -0.890878141
      ],
      "translation": [
        -0.176925823,
        -0.248301715,
        -0.04193508
      ],
      "name": "Left_Wrist_Joint_01"
    },
    {
      "children": [
        18
      ],
      "rotation": [
        0.0103129372,
        -0.000120490411,
        -0.0116820037,
        -0.9998786
      ],
      "translation": [
        -0.07013222,
        0.0124753257,
        -0.0255052447
      ],
      "name": "Left_Index_Finger_Joint_01a"
    },
    {
      "children": [
        19
      ],
      "rotation": [
        0.0007113588,
        0.0004798609,
        -0.011196686,
        -0.999937
      ],
      "translation": [
        -0.04053395,
        -2.33146828E-17,
        -9.922638E-19
      ],
      "name": "Left_Index_Finger_Joint_01b"
    },
    {
      "rotation": [
        -0.0110166054,
        -0.0002521592,
        0.0228816289,
        -0.9996775
      ],
      "translation": [
        -0.02294514,
        -3.190986E-16,
        -9.775166E-18
      ],
      "name": "Left_Index_Finger_Joint_01c"
    },
    {
      "children": [
        21
      ],
      "rotation": [
        0.0103130462,
        -0.000110864647,
        -0.0107487505,
        -0.9998891
      ],
      "translation": [
        -0.0718098655,
        0.0124753257,
        -0.005054819
      ],
      "name": "Left_Middle_Finger_Joint_01a"
    },
    {
      "children": [
        22
      ],
      "rotation": [
        0.0006498135,
        0.000440957781,
        -0.0103045171,
        -0.999946654
      ],
      "translation": [
        -0.0440528281,
        2.220446E-18,
        -1.31478208E-18
      ],
      "name": "Left_Middle_Finger_Joint_01b"
    },
    {
      "rotation": [
        -0.0109563544,
        -0.00023076385,
        0.0210561678,
        -0.999718249
      ],
      "translation": [
        -0.0249333773,
        1.4801235E-16,
        4.9960034E-18
      ],
      "name": "Left_Middle_Finger_Joint_01c"
    },
    {
      "children": [
        24
      ],
      "rotation": [
        0.0103124,
        -0.00016005653,
        -0.01551809,
        -0.9998264
      ],
      "translation": [
        -0.07212005,
        0.0124753257,
        0.03323619
      ],
      "name": "Left_Pinky_Finger_Joint_01a"
    },
    {
      "children": [
        25
      ],
      "rotation": [
        0.0009738356,
        0.000640973856,
        -0.0148621332,
        -0.9998889
      ],
      "translation": [
        -0.0305155125,
        -3.15025781E-17,
        -2.47200941E-18
      ],
      "name": "Left_Pinky_Finger_Joint_01b"
    },
    {
      "rotation": [
        -0.0112725943,
        -0.000342671672,
        0.0303826835,
        -0.9994747
      ],
      "translation": [
        -0.0172837134,
        -3.86662229E-16,
        -1.52742391E-17
      ],
      "name": "Left_Pinky_Finger_Joint_01c"
    },
    {
      "children": [
        27
      ],
      "rotation": [
        0.0103128543,
        -0.000127407635,
        -0.0123526547,
        -0.999870539
      ],
      "translation": [
        -0.0722572058,
        0.0124753257,
        0.014861824
      ],
      "name": "Left_Ring_Finger_Joint_01a"
    },
    {
      "children": [
        28
      ],
      "rotation": [
        0.0007561775,
        0.000507914461,
        -0.0118389884,
        -0.999929547
      ],
      "translation": [
        -0.0383335873,
        -2.4980017E-18,
        -4.41263923E-18
      ],
      "name": "Left_Ring_Finger_Joint_01b"
    },
    {
      "rotation": [
        -0.0110604241,
        -0.000267697,
        0.024194574,
        -0.999646068
      ],
      "translation": [
        -0.021700656,
        -6.477451E-17,
        -8.274631E-18
      ],
      "name": "Left_Ring_Finger_Joint_01c"
    },
    {
      "children": [
        30
      ],
      "rotation": [
        0.420362532,
        0.371804148,
        0.08352769,
        -0.8234563
      ],
      "translation": [
        -0.0468873158,
        -0.004865311,
        -0.0469883345
      ],
      "name": "Left_Thumb_Joint_01a"
    },
    {
      "rotation": [
        -0.420362532,
        -0.371804148,
        -0.08352769,
        -0.8234563
      ],
      "translation": [
        -0.0287782475,
        -0.00164805842,
        0.002403863
      ],
      "name": "Left_Thumb_Joint_01b"
    },
    {
      "children": [
        32
      ],
      "rotation": [
        0.0,
        0.0,
        0.151223585,
        -0.9884996
      ],
      "translation": [
        -0.395399421,
        1.28785867E-16,
        8.90155064E-17
      ],
      "name": "Neck"
    },
    {
      "rotation": [
        0.0,
        0.0,
        0.0,
        -1.0
      ],
      "translation": [
        -0.079,
        0.04,
        0.034
      ],
      "name": "Head"
    },
    {
      "children": [
        34
      ],
      "rotation": [
        0.447834462,
        0.410582274,
        0.5854563,
        -0.536756337
      ],
      "translation": [
        -0.247969925,
        -0.01896791,
        0.131306991
      ],
      "name": "Right_Shoulder_Joint_01"
    },
    {
      "children": [
        35
      ],
      "rotation": [
        -0.0008169309,
        -0.05782889,
        -0.361656964,
        -0.930515647
      ],
      "translation": [
        0.0635855645,
        2.842171E-16,
        3.92599446E-08
      ],
      "name": "Right_Upper_Arm_Joint_01"
    },
    {
      "children": [
        36
      ],
      "rotation": [
        0.7767065,
        0.186860234,
        0.0256702267,
        -0.600958645
      ],
      "translation": [
        0.240620226,
        0.00514373928,
        0.012117967
      ],
      "name": "Right_Forearm_Joint_01"
    },
    {
      "children": [
        37,
        40,
        43,
        46,
        49
      ],
      "rotation": [
        0.887527168,
        -0.200115785,
        -0.286619276,
        -0.300164253
      ],
      "translation": [
        0.3169961,
        -0.0330211222,
        0.0009973124
      ],
      "name": "Right_Wrist_Joint_01"
    },
    {
      "children": [
        38
      ],
      "rotation": [
        0.010504893,
        0.00877969,
        -0.00171795371,
        -0.9999048
      ],
      "translation": [
        0.0714,
        -0.0167,
        0.0294
      ],
      "name": "Right_Index_Finger_Joint_01a"
    },
    {
      "children": [
        39
      ],
      "rotation": [
        0.0007113588,
        0.0004798609,
        -0.011196686,
        -0.999937
      ],
      "translation": [
        0.0405,
        0.0,
        0.0002
      ],
      "name": "Right_Index_Finger_Joint_01b"
    },
    {
      "rotation": [
        -0.0110166054,
        -0.0002521592,
        0.0228816289,
        -0.9996775
      ],
      "translation": [
        0.0237,
        -0.0011,
        0.0022
      ],
      "name": "Right_Index_Finger_Joint_01c"
    },
    {
      "children": [
        41
      ],
      "rotation": [
        0.0104966946,
        0.008789492,
        -0.0007846789,
        -0.999906
      ],
      "translation": [
        0.0714,
        -0.0139,
        0.0086
      ],
      "name": "Right_Middle_Finger_Joint_01a"
    },
    {
      "children": [
        42
      ],
      "rotation": [
        0.0006498135,
        0.000440957781,
        -0.0103045171,
        -0.999946654
      ],
      "translation": [
        0.0440530181,
        6.337014E-07,
        1.95757313E-08
      ],
      "name": "Right_Middle_Finger_Joint_01b"
    },
    {
      "rotation": [
        -0.0109563544,
        -0.00023076385,
        0.0210561678,
        -0.999718249
      ],
      "translation": [
        0.0249327328,
        -3.78608348E-07,
        -6.71087363E-08
      ],
      "name": "Right_Middle_Finger_Joint_01c"
    },
    {
      "children": [
        44
      ],
      "rotation": [
        -0.063049756,
        -0.0418843068,
        -0.005649108,
        -0.9971151
      ],
      "translation": [
        0.07243168,
        -0.0138951056,
        -0.031925533
      ],
      "name": "Right_Pinky_Finger_Joint_01a"
    },
    {
      "children": [
        45
      ],
      "rotation": [
        0.0009738356,
        0.000640973856,
        -0.0148621332,
        -0.9998889
      ],
      "translation": [
        0.0305161439,
        -4.78116E-08,
        -6.06602839E-08
      ],
      "name": "Right_Pinky_Finger_Joint_01b"
    },
    {
      "rotation": [
        -0.0112725943,
        -0.000342671672,
        0.0303826835,
        -0.9994747
      ],
      "scale": [
        1.0795,
        1.0796,
        1.0795
      ],
      "translation": [
        0.0177,
        -0.0006,
        0.0001
      ],
      "name": "Right_Pinky_Finger_Joint_01c"
    },
    {
      "children": [
        47
      ],
      "rotation": [
        0.01051078,
        0.008772642,
        -0.00238862471,
        -0.99990344
      ],
      "translation": [
        0.07225248,
        -0.0139042325,
        -0.0135582108
      ],
      "name": "Right_Ring_Finger_Joint_01a"
    },
    {
      "children": [
        48
      ],
      "rotation": [
        0.0007561775,
        0.000507914461,
        -0.0118389884,
        -0.999929547
      ],
      "translation": [
        0.03833457,
        -1.48944338E-07,
        -2.93836546E-08
      ],
      "name": "Right_Ring_Finger_Joint_01b"
    },
    {
      "rotation": [
        -0.0110604241,
        -0.000267697,
        0.024194574,
        -0.999646068
      ],
      "translation": [
        0.02170031,
        2.02178668E-07,
        9.377064E-08
      ],
      "name": "Right_Ring_Finger_Joint_01c"
    },
    {
      "children": [
        50
      ],
      "rotation": [
        0.4233163,
        0.3750433,
        0.09540078,
        -0.8191731
      ],
      "translation": [
        0.0461209379,
        0.00395598775,
        0.04782508
      ],
      "name": "Right_Thumb_Joint_01a"
    },
    {
      "rotation": [
        0.4913937,
        0.05125883,
        -0.325592071,
        -0.8061604
      ],
      "scale": [
        1.221,
        1.221,
        1.221
      ],
      "translation": [
        0.0287786014,
        0.00164825376,
        -0.00240345858
      ],
      "name": "Right_Thumb_Joint_01b"
    }
  ],
  "samplers": [
    {
      "minFilter": 9729
    }
  ],
  "scene": 0,
  "scenes": [
    {
      "nodes": [
        0
      ],
      "name": "Robot Kyle"
    }
  ],
  "skins": [
    {
      "inverseBindMatrices": 5,
      "joints": [
        12,
        31,
        32,
        13,
        14,
        15,
        16,
        17,
        18,
        19,
        20,
        21,
        22,
        26,
        27,
        28,
        23,
        24,
        25,
        29,
        30,
        33,
        34,
        35,
        36,
        37,
        38,
        39,
        40,
        41,
        42,
        46,
        47,
        48,
        43,
        44,
        45,
        49,
        50,
        3,
        4,
        5,
        6,
        7,
        8,
        9,
        10,
        11
      ]
    }
  ],
  "textures": [
    {
      "sampler": 0,
      "source": 0,
      "name": "Robot_Color"
    }
  ]
}