{
  "accessors": [
    {
      "bufferView": 2,
      "componentType": 5126,
      "count": 5605,
      "max": [
        65.05705261230469,
        179.95455932617188,
        15.979511260986328
      ],
      "min": [
        -65.05705261230469,
        -0.03052048571407795,
        -17.598716735839844
      ],
      "type": "VEC3"
    },
    {
      "bufferView": 2,
      "byteOffset": 67260,
      "componentType": 5126,
      "count": 5605,
      "max": [
        1.0,
        1.0,
        1.0
      ],
      "min": [
        -1.0,
        -1.0,
        -1.0
      ],
      "type": "VEC3"
    },
    {
      "bufferView": 1,
      "componentType": 5126,
      "count": 5605,
      "max": [
        0.9960132837295532,
        0.9940281510353088
      ],
      "min": [
        0.004622936248779297,
        0.006579550914466381
      ],
      "type": "VEC2"
    },
    {
      "bufferView": 1,
      "byteOffset": 44840,
      "componentType": 5126,
      "count": 5605,
      "max": [
        0.9960132837295532,
        0.9940281510353088
      ],
      "min": [
        0.004622936248779297,
        0.006579550914466381
      ],
      "type": "VEC2"
    },
    {
      "bufferView": 1,
      "byteOffset": 89680,
      "componentType": 5126,
      "count": 5605,
      "max": [
        0.9960132837295532,
        0.9940281510353088
      ],
      "min": [
        0.004622936248779297,
        0.006579550914466381
      ],
      "type": "VEC2"
    },
    {
      "bufferView": 0,
      "componentType": 5125,
      "count": 18396,
      "type": "SCALAR"
    },
    {
      "bufferView": 3,
      "componentType": 5126,
      "count": 1,
      "max": [
        1.0,
        0.0,
        0.0,
        0.0,
        0.0,
        1.0,
        0.0,
        0.0,
        0.0,
        0.0,
        1.0,
        0.0,
        0.0,
        0.0,
        0.0,
        1.0
      ],
      "min": [
        1.0,
        0.0,
        0.0,
        0.0,
        0.0,
        1.0,
        0.0,
        0.0,
        0.0,
        0.0,
        1.0,
        0.0,
        0.0,
        0.0,
        0.0,
        1.0
      ],
      "type": "MAT4"
    }
  ],
  "asset": {
    "extras": {
      "author": "alonecat06 (https://sketchfab.com/alonecat06)",
      "license": "CC-BY-4.0 (http://creativecommons.org/licenses/by/4.0/)",
      "source": "https://sketchfab.com/3d-models/robot-kyle-2fb613916efb45c08c3a1337b20e9d3c",
      "title": "Robot Kyle"
    },
    "generator": "Sketchfab-12.68.0",
    "version": "2.0"
  },
  "bufferViews": [
    {
      "buffer": 0,
      "byteLength": 73584,
      "name": "floatBufferViews",
      "target": 34963
    },
    {
      "buffer": 0,
      "byteLength": 134520,
      "byteOffset": 73584,
      "byteStride": 8,
      "name": "floatBufferViews",
      "target": 34962
    },
    {
      "buffer": 0,
      "byteLength": 134520,
      "byteOffset": 208104,
      "byteStride": 12,
      "name": "floatBufferViews",
      "target": 34962
    },
    {
      "buffer": 0,
      "byteLength": 64,
      "byteOffset": 342624,
      "name": "floatBufferViews"
    }
  ],
  "buffers": [
    {
      "byteLength": 342688,
      "uri": "scene.bin"
    }
  ],
  "materials": [
    {
      "doubleSided": true,
      "name": "Robot",
      "pbrMetallicRoughness": {
        "metallicFactor": 0.0,
        "roughnessFactor": 0.9147823860699966
      }
    }
  ],
  "meshes": [
    {
      "name": "Object_0",
      "primitives": [
        {
          "attributes": {
            "NORMAL": 1,
            "POSITION": 0,
            "TEXCOORD_0": 2,
            "TEXCOORD_1": 3,
            "TEXCOORD_2": 4
          },
          "indices": 5,
          "material": 0,
          "mode": 4
        }
      ]
    }
  ],
  "nodes": [
    {
      "children": [
        1
      ],
      "matrix": [
        1.0,
        0.0,
        0.0,
        0.0,
        0.0,
        2.220446049250313e-16,
        -1.0,
        0.0,
        0.0,
        1.0,
        2.220446049250313e-16,
        0.0,
        0.0,
        0.0,
        0.0,
        1.0
      ],
      "name": "Sketchfab_model"
    },
    {
      "children": [
        2
      ],
      "matrix": [
        1.0,
        0.0,
        0.0,
        0.0,
        0.0,
        0.0,
        1.0,
        0.0,
        0.0,
        -1.0,
        0.0,
        0.0,
        0.0,
        0.0,
        0.0,
        1.0
      ],
      "name": "9a26f60454474af7924d100720da95f4.fbx"
    },
    {
      "children": [
        3
      ],
      "name": "RootNode"
    },
    {
      "children": [
        4,
        5
      ],
      "name": "Object_3"
    },
    {
      "name": "_rootJoint"
    },
    {
      "children": [
        6
      ],
      "matrix": [
        1.0,
        -9.860761315262648e-32,
        0.0,
        0.0,
        9.860761315262648e-32,
        1.0,
        -1.3568226917905515e-31,
        0.0,
        1.3379304710878805e-62,
        1.3568226917905515e-31,
        1.0,
        0.0,
        -6.310887241768095e-30,
        0.0,
        8.881784197001252e-16,
        1.0
      ],
      "name": "Object_5"
    },
    {
      "mesh": 0,
      "name": "Object_6"
    }
  ],
  "scene": 0,
  "scenes": [
    {
      "name": "Sketchfab_Scene",
      "nodes": [
        0
      ]
    }
  ],
  "skins": [
    {
      "inverseBindMatrices": 6,
      "joints": [
        4
      ],
      "skeleton": 4
    }
  ]
}
